<svg xmlns="http://www.w3.org/2000/svg" width="1440" height="900" viewBox="0 0 1440 900">
  <defs>
    <linearGradient id="bg" x1="0" y1="0" x2="1" y2="1">
      <stop offset="0%" stop-color="#eef5f1"/>
      <stop offset="100%" stop-color="#f4f6f4"/>
    </linearGradient>
    <linearGradient id="head" x1="0" y1="0" x2="1" y2="0">
      <stop offset="0%" stop-color="#164a3b" stop-opacity="0.14"/>
      <stop offset="100%" stop-color="#f2e5c9" stop-opacity="0.45"/>
    </linearGradient>
  </defs>
  <rect width="1440" height="900" fill="url(#bg)"/>

  <rect x="0" y="0" width="1440" height="66" fill="#f4f6f4" opacity="0.95"/>
  <line x1="0" y1="66" x2="1440" y2="66" stroke="#d7ddd9"/>
  <text x="90" y="42" font-size="24" font-family="Segoe UI, Arial, sans-serif" font-weight="700" fill="#164a3b">Sanzu Frontend Visual Baseline</text>
  <rect x="1220" y="20" width="160" height="30" rx="15" fill="#e7f3ee" stroke="#b7d7ca"/>
  <text x="1240" y="40" font-size="14" font-family="Segoe UI, Arial, sans-serif" fill="#245d48">Branded HTML/CSS</text>

  <text x="92" y="132" font-size="56" font-family="Segoe UI, Arial, sans-serif" font-weight="700" fill="#1f2a24">Frontend Story Visual Deliverables</text>
  <text x="92" y="174" font-size="24" font-family="Segoe UI, Arial, sans-serif" fill="#5f6d65">Trust-first UX direction for the Sanzu web frontend</text>

  <rect x="90" y="220" width="930" height="610" rx="24" fill="#fff" stroke="#d7ddd9"/>
  <rect x="90" y="220" width="930" height="68" rx="24" fill="url(#head)"/>
  <text x="120" y="262" font-size="26" font-family="Segoe UI, Arial, sans-serif" font-weight="600" fill="#1f2a24">Story Pages</text>

  <g font-family="Segoe UI, Arial, sans-serif">
    <rect x="120" y="312" width="420" height="110" rx="14" fill="#fff" stroke="#d7ddd9"/>
    <text x="145" y="352" font-size="24" font-weight="700" fill="#1f2a24">Story 1.7</text>
    <text x="145" y="383" font-size="18" fill="#5f6d65">Onboarding + billing activation UX</text>

    <rect x="570" y="312" width="420" height="110" rx="14" fill="#fff" stroke="#d7ddd9"/>
    <text x="595" y="352" font-size="24" font-weight="700" fill="#1f2a24">Story 2.5</text>
    <text x="595" y="383" font-size="18" fill="#5f6d65">Case lifecycle + role-safe collaboration</text>

    <rect x="120" y="442" width="420" height="110" rx="14" fill="#fff" stroke="#d7ddd9"/>
    <text x="145" y="482" font-size="24" font-weight="700" fill="#1f2a24">Story 3.6</text>
    <text x="145" y="513" font-size="18" fill="#5f6d65">Intake, plan, and task progress</text>

    <rect x="570" y="442" width="420" height="110" rx="14" fill="#fff" stroke="#d7ddd9"/>
    <text x="595" y="482" font-size="24" font-weight="700" fill="#1f2a24">Story 4.6</text>
    <text x="595" y="513" font-size="18" fill="#5f6d65">Documents + extraction review</text>

    <rect x="120" y="572" width="420" height="110" rx="14" fill="#fff" stroke="#d7ddd9"/>
    <text x="145" y="612" font-size="24" font-weight="700" fill="#1f2a24">Story 5.6</text>
    <text x="145" y="643" font-size="18" fill="#5f6d65">External handoff + process inbox</text>

    <rect x="570" y="572" width="420" height="110" rx="14" fill="#fff" stroke="#d7ddd9"/>
    <text x="595" y="612" font-size="24" font-weight="700" fill="#1f2a24">Story 8.5</text>
    <text x="595" y="643" font-size="18" fill="#5f6d65">Public web + conversion journey</text>
  </g>

  <rect x="1050" y="220" width="300" height="610" rx="24" fill="#fff" stroke="#d7ddd9"/>
  <rect x="1050" y="220" width="300" height="68" rx="24" fill="url(#head)"/>
  <text x="1080" y="262" font-size="26" font-family="Segoe UI, Arial, sans-serif" font-weight="600" fill="#1f2a24">Brand Signals</text>
  <g font-family="Segoe UI, Arial, sans-serif" fill="#1f2a24" font-size="19">
    <text x="1080" y="340">• Forest + moss trust palette</text>
    <text x="1080" y="385">• Warm sand surface accents</text>
    <text x="1080" y="430">• Clear state hierarchy</text>
    <text x="1080" y="475">• Responsive layout behavior</text>
  </g>
</svg>
